<?xml version="1.0" encoding="utf-8"?>
<!-- Generator: Adobe Illustrator 16.0.0, SVG Export Plug-In . SVG Version: 6.00 Build 0)  -->
<!DOCTYPE svg PUBLIC "-//W3C//DTD SVG 1.1//EN" "http://www.w3.org/Graphics/SVG/1.1/DTD/svg11.dtd">
<svg version="1.1" id="Layer_1" xmlns="http://www.w3.org/2000/svg" xmlns:xlink="http://www.w3.org/1999/xlink" x="0px" y="0px"
	 width="612px" height="792px" viewBox="0 0 612 792" enable-background="new 0 0 612 792" xml:space="preserve">
<g>
	<path fill-rule="evenodd" clip-rule="evenodd" fill="#FFA801" d="M357.089,334.105c4.849,3.309,9.84,6.43,14.494,9.993
		c1.495,1.144,3.805,2.558,3.886,2.527c0,0,3.082-2.37,4.688-3.562c3.438-2.552,17.088-13.869,26.125-20.767
		c7.031-5.367,14.587-10.084,22.606-13.847c7.261-3.408,11.655-0.714,12.435,7.116c1.141,11.463-0.62,22.841-1.215,34.246
		c-0.489,9.366-1.614,18.696-2.324,28.054c-0.649,8.531-4.165,10.691-11.833,6.705c-12.407-6.449-23.479-14.928-34.595-23.319
		c-3.927-2.964-7.846-5.943-11.7-9c-1.551-1.229-3.072-2.25-3.072-2.25c-0.23,0.136-2.017,1.524-2.943,2.342
		c-9.58,8.459-19.191,16.886-28.798,25.315c-1.688,1.481-3.37,2.973-5.121,4.377c-2.092,1.676-2.046,2.999,0.315,4.422
		c6.985,4.206,13.799,8.707,20.889,12.723c12.833,7.27,25.502,14.849,39.788,19.226c12.387,3.794,17.904,3.526,28.624-8.332
		c2.144-2.371,4.595-4.534,6.021-7.56c0.622-1.32,1.86-1.982,2.498,0.242c2.006,6.997,2.593,14.026,0.483,21.113
		c-0.719,2.418-0.528,5.05-1.814,7.337c-3.456,6.142-9.305,8.156-17.639,5.868c-7.386-2.027-14.158-5.496-20.648-9.463
		c-17.166-10.493-34.007-21.492-50.401-33.155c-3.422-2.436-6.496-5.356-10.064-7.637c-1.564-1-2.504-0.903-3.974,0.405
		c-30.962,27.558-62.106,54.913-93.796,81.631c-15.042,12.684-30.898,24.342-46.756,35.999c-10.32,7.587-20.663,15.11-31.616,21.714
		c-16.89,10.182-33.987,19.94-53.914,23.238c-7.473,1.236-14.983,1.727-22.234-0.004c-9.615-2.295-15.854-9.18-18.73-18.356
		C62.73,518.616,57.706,505.1,54.667,492c-3.797-16.363-7.823-32.663-11.117-49.15c-2.518-12.602-6.054-26.968-8.883-39.517
		c-2.557-11.335-3.929-22.949-6.742-34.211c-3.331-13.337-4.451-23.34-7.258-37.789c-1.709-8.799-2.716-17.677-4.181-26.527
		c-1.268-7.663-1.081-15.422-2.475-22.955c-1.061-5.733-1.179-11.391-1.467-17.124c-0.544-10.84,1.292-21.418,5.083-31.344
		c5.914-15.48,16.62-23.642,36.306-20.992c18.538,2.496,36.066,9.106,52.767,17.329c34.004,16.741,66.103,36.73,97.08,58.558
		c17.244,12.151,34.884,23.741,52.039,36.013c19.201,13.735,38.281,27.649,56.824,42.278c4.744,3.743,9.697,7.221,14.482,10.914
		c1.715,1.324,3.128,1.34,4.897,0.068c12.67-9.114,25.849-18.53,38.605-27.521c1.414-0.997,2.727-1.993,2.83-2.072
		c0,0-1.441-1.139-3.104-2.42c-4.485-3.457-6.847-4.92-10.174-7.501C358.888,337.036,357.197,336.477,357.089,334.105z M62.299,299
		c-1.027,8.345-0.3,19.731,0.034,30c0.433,13.313,1.331,24.603,3,37.975c1.521,12.185,3.769,23.596,5.483,35.9
		c1.7,12.194,4.104,23.966,9.169,35.229c4.35,9.67,11.079,17.325,19.7,23.053c10.549,7.008,22.667,9.093,35.144,8.299
		c15.09-0.961,29.863-3.869,44.139-8.942c25.111-8.926,49.114-20.277,72.43-33.156c25.503-14.086,50.115-29.6,74.284-45.84
		c1.737-1.167,1.668-1.989,0.085-3.08c-3.242-2.236-6.459-4.508-9.707-6.735c-17.862-12.248-36.075-23.959-54.217-35.785
		c-19.937-12.997-40.504-24.876-61.458-36.045c-18.611-9.92-37.71-18.937-57.582-26.199c-15.574-5.692-31.331-10.355-48.156-9.145
		c-9.78,0.704-18.743,3.239-24.825,12.041C65.356,283.032,61.461,291.859,62.299,299z M435.082,344.556
		c0.423-5.763-0.482-12.629-0.82-19.513c-0.236-4.828-3.208-7.394-8.019-7.318c-3.631,0.056-6.746,1.804-10.002,3.121
		c-13.455,5.443-23.831,15.232-34.573,24.484c-1.391,1.197-3.355,3.046-3.355,3.046c0.102,0.108,2.571,1.976,4.337,3.023
		c3.021,1.793,5.885,3.856,8.944,5.576c7.834,4.403,15.448,9.343,24.314,11.517c11.911,2.919,19.024-2.624,19.169-14.757
		C435.109,351.06,435.082,348.383,435.082,344.556z"/>
	<path fill-rule="evenodd" clip-rule="evenodd" fill="#FFA801" d="M532.227,324.238c-3.281-4.308-6.436-8.72-9.871-12.902
		c-8.566-10.431-17.231-20.83-29.523-27.181c-10.714-5.535-18.901-3.003-24.924,7.382c-3.638,6.273-5.34,13.041-6.628,20.194
		c-1.285,7.14-2.104,14.372-3.382,21.511c-1.493,8.349-1.001,17.053-1.196,25.648c-0.19,8.364-0.397,10.74-0.265,17.171
		c-0.462,11.577,1.801,21.467,3.703,32.74c1.778,10.532,4.496,21.035,11.42,29.936c6.485,8.337,14.31,11.6,24.735,9.168
		c10.363-2.418,18.467-8.647,26.225-15.468c4.385-3.855,8.887-7.579,12.656-12.124c0.268,0.235,0.535,0.471,0.802,0.706
		c-0.998,1.35-1.916,2.768-3.006,4.037c-12.992,15.143-26.457,29.861-40.996,43.525c-5.084,4.779-10.562,9.287-16.938,12.463
		c-8.036,4.003-15.439,2.984-19.747-3.067c-1.699-2.387-2.823-5.175-3.41-8.085c-2.228-11.018-3.724-22.126-3.971-33.383
		c-0.456-20.693-0.412-41.428,1.132-62.029c0.975-12.986,1.327-26.082,3.208-38.979c2.077-14.241,4.752-28.404,7.568-42.522
		c1.877-9.407,5.656-18.16,11.05-26.161c4.318-6.408,12.343-8.16,19.354-3.865c7.336,4.493,12.41,11.328,17.438,18.075
		c9.578,12.851,16.864,27.122,24.881,40.938c0.271,0.466,0.326,1.056,0.482,1.588C532.759,323.784,532.493,324.011,532.227,324.238z
		"/>
	<path fill-rule="evenodd" clip-rule="evenodd" fill="#FFA801" d="M605.496,322.37c-4.314,2.825-9.295,3.558-14.173,4.544
		c-8.131,1.645-16.392,2.431-24.639,3.27c-4.565,0.464-8.983-0.141-13.277-1.671c-4.481-1.596-5.437-4.206-2.511-7.976
		c3.44-4.434,7.379-8.511,11.949-11.774c4.128-2.948,7.992-6.186,11.857-9.436c1.974-1.659,3.651-3.552,2.702-6.464
		c-1.042-3.2-3.805-2.947-6.294-2.926c-2.767,0.025-5.532,0.338-8.348,0.172c6.341-2.169,12.955-2.885,19.521-3.804
		c1.936-0.271,3.916-0.337,5.874-0.308c1.081,0.017,2.465,0.068,2.916,1.289c0.56,1.513-0.412,2.814-1.459,3.684
		c-3.343,2.78-6.735,5.518-10.263,8.059c-6.559,4.724-12.162,10.38-16.743,17c-3.488,5.04-1.393,9.323,4.879,9.85
		c8.578,0.72,17.132,0.178,25.616-1.315C597.236,323.836,601.365,323.101,605.496,322.37z"/>
</g>
</svg>
